<mxfile host="Electron" modified="2023-09-21T19:54:15.999Z" agent="Mozilla/5.0 (Windows NT 10.0; Win64; x64) AppleWebKit/537.36 (KHTML, like Gecko) draw.io/21.7.5 Chrome/114.0.5735.289 Electron/25.8.1 Safari/537.36" etag="XuoknElKPAmWM_l6xbck" version="21.7.5" type="device">
  <diagram name="Страница — 1" id="hO4zdTE_m0VrEeYjM2zI">
    <mxGraphModel dx="1419" dy="961" grid="1" gridSize="10" guides="1" tooltips="1" connect="1" arrows="1" fold="1" page="1" pageScale="1" pageWidth="827" pageHeight="1169" math="0" shadow="0">
      <root>
        <mxCell id="0" />
        <mxCell id="1" parent="0" />
        <mxCell id="qI93fAF7Guz_F5CADLSB-6" value="" style="edgeStyle=orthogonalEdgeStyle;rounded=0;orthogonalLoop=1;jettySize=auto;html=1;" edge="1" parent="1" source="qI93fAF7Guz_F5CADLSB-1" target="qI93fAF7Guz_F5CADLSB-3">
          <mxGeometry relative="1" as="geometry" />
        </mxCell>
        <mxCell id="qI93fAF7Guz_F5CADLSB-1" value="Жилец &lt;br&gt;обращается на пульт &lt;br&gt;диспетчера АДС" style="shape=hexagon;perimeter=hexagonPerimeter2;whiteSpace=wrap;html=1;fixedSize=1;fillColor=#ffe6cc;strokeColor=#d79b00;" vertex="1" parent="1">
          <mxGeometry x="10" y="200" width="120" height="80" as="geometry" />
        </mxCell>
        <mxCell id="qI93fAF7Guz_F5CADLSB-7" value="" style="edgeStyle=orthogonalEdgeStyle;rounded=0;orthogonalLoop=1;jettySize=auto;html=1;entryX=0.5;entryY=0;entryDx=0;entryDy=0;" edge="1" parent="1" source="qI93fAF7Guz_F5CADLSB-2" target="qI93fAF7Guz_F5CADLSB-3">
          <mxGeometry relative="1" as="geometry" />
        </mxCell>
        <mxCell id="qI93fAF7Guz_F5CADLSB-2" value="Диспетчер АДС" style="rounded=0;whiteSpace=wrap;html=1;fillColor=#fff2cc;strokeColor=#d6b656;" vertex="1" parent="1">
          <mxGeometry x="330" y="60" width="120" height="60" as="geometry" />
        </mxCell>
        <mxCell id="qI93fAF7Guz_F5CADLSB-9" value="" style="edgeStyle=orthogonalEdgeStyle;rounded=0;orthogonalLoop=1;jettySize=auto;html=1;" edge="1" parent="1" source="qI93fAF7Guz_F5CADLSB-3" target="qI93fAF7Guz_F5CADLSB-4">
          <mxGeometry relative="1" as="geometry" />
        </mxCell>
        <mxCell id="qI93fAF7Guz_F5CADLSB-3" value="Присвоение статуса&amp;nbsp;&quot;Авария&quot; или &quot;Прочее&quot;." style="rounded=0;whiteSpace=wrap;html=1;fillColor=#d5e8d4;strokeColor=#82b366;" vertex="1" parent="1">
          <mxGeometry x="210" y="210" width="120" height="60" as="geometry" />
        </mxCell>
        <mxCell id="qI93fAF7Guz_F5CADLSB-10" value="" style="edgeStyle=orthogonalEdgeStyle;rounded=0;orthogonalLoop=1;jettySize=auto;html=1;" edge="1" parent="1" source="qI93fAF7Guz_F5CADLSB-4" target="qI93fAF7Guz_F5CADLSB-5">
          <mxGeometry relative="1" as="geometry" />
        </mxCell>
        <mxCell id="qI93fAF7Guz_F5CADLSB-11" value="Да" style="edgeLabel;html=1;align=center;verticalAlign=middle;resizable=0;points=[];" vertex="1" connectable="0" parent="qI93fAF7Guz_F5CADLSB-10">
          <mxGeometry x="-0.2944" y="1" relative="1" as="geometry">
            <mxPoint as="offset" />
          </mxGeometry>
        </mxCell>
        <mxCell id="qI93fAF7Guz_F5CADLSB-16" value="" style="edgeStyle=orthogonalEdgeStyle;rounded=0;orthogonalLoop=1;jettySize=auto;html=1;" edge="1" parent="1" source="qI93fAF7Guz_F5CADLSB-4" target="qI93fAF7Guz_F5CADLSB-15">
          <mxGeometry relative="1" as="geometry" />
        </mxCell>
        <mxCell id="qI93fAF7Guz_F5CADLSB-17" value="Нет" style="edgeLabel;html=1;align=center;verticalAlign=middle;resizable=0;points=[];" vertex="1" connectable="0" parent="qI93fAF7Guz_F5CADLSB-16">
          <mxGeometry x="-0.2714" y="2" relative="1" as="geometry">
            <mxPoint y="1" as="offset" />
          </mxGeometry>
        </mxCell>
        <mxCell id="qI93fAF7Guz_F5CADLSB-4" value="Прочее?" style="rhombus;whiteSpace=wrap;html=1;fillColor=#f5f5f5;fontColor=#333333;strokeColor=#666666;" vertex="1" parent="1">
          <mxGeometry x="384" y="200" width="80" height="80" as="geometry" />
        </mxCell>
        <mxCell id="qI93fAF7Guz_F5CADLSB-5" value="Формирование заявки и её передача в ОДС" style="rounded=0;whiteSpace=wrap;html=1;fillColor=#d5e8d4;strokeColor=#82b366;" vertex="1" parent="1">
          <mxGeometry x="530" y="210" width="120" height="60" as="geometry" />
        </mxCell>
        <mxCell id="qI93fAF7Guz_F5CADLSB-8" value="" style="endArrow=classic;html=1;rounded=0;entryX=0.5;entryY=0;entryDx=0;entryDy=0;" edge="1" parent="1" target="qI93fAF7Guz_F5CADLSB-5">
          <mxGeometry width="50" height="50" relative="1" as="geometry">
            <mxPoint x="390" y="165" as="sourcePoint" />
            <mxPoint x="440" y="120" as="targetPoint" />
            <Array as="points">
              <mxPoint x="590" y="165" />
            </Array>
          </mxGeometry>
        </mxCell>
        <mxCell id="qI93fAF7Guz_F5CADLSB-12" value="Обработка заявки в ОДС" style="rounded=0;whiteSpace=wrap;html=1;fillColor=#d5e8d4;strokeColor=#82b366;" vertex="1" parent="1">
          <mxGeometry x="700" y="210" width="120" height="60" as="geometry" />
        </mxCell>
        <mxCell id="qI93fAF7Guz_F5CADLSB-13" value="" style="endArrow=classic;html=1;rounded=0;entryX=0.5;entryY=0;entryDx=0;entryDy=0;" edge="1" parent="1" target="qI93fAF7Guz_F5CADLSB-12">
          <mxGeometry width="50" height="50" relative="1" as="geometry">
            <mxPoint x="590" y="166" as="sourcePoint" />
            <mxPoint x="640" y="116" as="targetPoint" />
            <Array as="points">
              <mxPoint x="760" y="166" />
            </Array>
          </mxGeometry>
        </mxCell>
        <mxCell id="qI93fAF7Guz_F5CADLSB-19" value="" style="edgeStyle=orthogonalEdgeStyle;rounded=0;orthogonalLoop=1;jettySize=auto;html=1;" edge="1" parent="1" source="qI93fAF7Guz_F5CADLSB-15" target="qI93fAF7Guz_F5CADLSB-18">
          <mxGeometry relative="1" as="geometry" />
        </mxCell>
        <mxCell id="qI93fAF7Guz_F5CADLSB-15" value="Формирование заявки и наряда" style="rounded=0;whiteSpace=wrap;html=1;fillColor=#d5e8d4;strokeColor=#82b366;" vertex="1" parent="1">
          <mxGeometry x="364" y="330" width="120" height="60" as="geometry" />
        </mxCell>
        <mxCell id="qI93fAF7Guz_F5CADLSB-21" value="" style="edgeStyle=orthogonalEdgeStyle;rounded=0;orthogonalLoop=1;jettySize=auto;html=1;exitX=0.5;exitY=1;exitDx=0;exitDy=0;" edge="1" parent="1" source="qI93fAF7Guz_F5CADLSB-18" target="qI93fAF7Guz_F5CADLSB-20">
          <mxGeometry relative="1" as="geometry" />
        </mxCell>
        <mxCell id="qI93fAF7Guz_F5CADLSB-18" value="Аварийная бригада устраняет аварию" style="rounded=0;whiteSpace=wrap;html=1;fillColor=#d5e8d4;strokeColor=#82b366;" vertex="1" parent="1">
          <mxGeometry x="130" y="330" width="120" height="60" as="geometry" />
        </mxCell>
        <mxCell id="qI93fAF7Guz_F5CADLSB-20" value="Бригадир аварийной бригады оформляет акт выполненных работ" style="rounded=0;whiteSpace=wrap;html=1;fillColor=#d5e8d4;strokeColor=#82b366;" vertex="1" parent="1">
          <mxGeometry x="130" y="450" width="120" height="60" as="geometry" />
        </mxCell>
        <mxCell id="qI93fAF7Guz_F5CADLSB-22" value="Подписан&lt;br&gt;&amp;nbsp;ли акт?" style="rhombus;whiteSpace=wrap;html=1;fillColor=#f5f5f5;fontColor=#333333;strokeColor=#666666;" vertex="1" parent="1">
          <mxGeometry x="384" y="440" width="80" height="80" as="geometry" />
        </mxCell>
        <mxCell id="qI93fAF7Guz_F5CADLSB-23" value="" style="endArrow=classic;html=1;rounded=0;exitX=1;exitY=0.5;exitDx=0;exitDy=0;entryX=0;entryY=0.5;entryDx=0;entryDy=0;" edge="1" parent="1" source="qI93fAF7Guz_F5CADLSB-20" target="qI93fAF7Guz_F5CADLSB-22">
          <mxGeometry width="50" height="50" relative="1" as="geometry">
            <mxPoint x="310" y="500" as="sourcePoint" />
            <mxPoint x="360" y="450" as="targetPoint" />
          </mxGeometry>
        </mxCell>
        <mxCell id="qI93fAF7Guz_F5CADLSB-24" value="Факт сдачи акта выполненных работ" style="shape=hexagon;perimeter=hexagonPerimeter2;whiteSpace=wrap;html=1;fixedSize=1;fillColor=#ffe6cc;strokeColor=#d79b00;" vertex="1" parent="1">
          <mxGeometry x="600" y="440" width="120" height="80" as="geometry" />
        </mxCell>
        <mxCell id="qI93fAF7Guz_F5CADLSB-25" value="Да" style="endArrow=classic;html=1;rounded=0;exitX=1;exitY=0.5;exitDx=0;exitDy=0;entryX=0;entryY=0.5;entryDx=0;entryDy=0;" edge="1" parent="1" source="qI93fAF7Guz_F5CADLSB-22" target="qI93fAF7Guz_F5CADLSB-24">
          <mxGeometry width="50" height="50" relative="1" as="geometry">
            <mxPoint x="510" y="490" as="sourcePoint" />
            <mxPoint x="560" y="440" as="targetPoint" />
          </mxGeometry>
        </mxCell>
        <mxCell id="qI93fAF7Guz_F5CADLSB-26" value="Аварийная бригада" style="rounded=0;whiteSpace=wrap;html=1;fillColor=#fff2cc;strokeColor=#d6b656;" vertex="1" parent="1">
          <mxGeometry x="40" y="600" width="120" height="60" as="geometry" />
        </mxCell>
        <mxCell id="qI93fAF7Guz_F5CADLSB-27" value="" style="endArrow=classic;html=1;rounded=0;exitX=0.5;exitY=0;exitDx=0;exitDy=0;entryX=0;entryY=0.5;entryDx=0;entryDy=0;" edge="1" parent="1" source="qI93fAF7Guz_F5CADLSB-26" target="qI93fAF7Guz_F5CADLSB-18">
          <mxGeometry width="50" height="50" relative="1" as="geometry">
            <mxPoint x="70" y="550" as="sourcePoint" />
            <mxPoint x="120" y="500" as="targetPoint" />
            <Array as="points">
              <mxPoint x="100" y="360" />
            </Array>
          </mxGeometry>
        </mxCell>
        <mxCell id="qI93fAF7Guz_F5CADLSB-28" value="" style="endArrow=classic;html=1;rounded=0;entryX=0;entryY=0.5;entryDx=0;entryDy=0;" edge="1" parent="1" target="qI93fAF7Guz_F5CADLSB-20">
          <mxGeometry width="50" height="50" relative="1" as="geometry">
            <mxPoint x="100" y="480" as="sourcePoint" />
            <mxPoint x="150" y="430" as="targetPoint" />
          </mxGeometry>
        </mxCell>
        <mxCell id="qI93fAF7Guz_F5CADLSB-30" value="" style="edgeStyle=orthogonalEdgeStyle;rounded=0;orthogonalLoop=1;jettySize=auto;html=1;" edge="1" parent="1" source="qI93fAF7Guz_F5CADLSB-29" target="qI93fAF7Guz_F5CADLSB-15">
          <mxGeometry relative="1" as="geometry" />
        </mxCell>
        <mxCell id="qI93fAF7Guz_F5CADLSB-29" value="Диспетчер АДС" style="rounded=0;whiteSpace=wrap;html=1;fillColor=#fff2cc;strokeColor=#d6b656;" vertex="1" parent="1">
          <mxGeometry x="530" y="330" width="120" height="60" as="geometry" />
        </mxCell>
        <mxCell id="qI93fAF7Guz_F5CADLSB-32" value="Закрытие заявки" style="shape=hexagon;perimeter=hexagonPerimeter2;whiteSpace=wrap;html=1;fixedSize=1;fillColor=#ffe6cc;strokeColor=#d79b00;" vertex="1" parent="1">
          <mxGeometry x="600" y="570" width="120" height="80" as="geometry" />
        </mxCell>
        <mxCell id="qI93fAF7Guz_F5CADLSB-33" value="" style="endArrow=classic;html=1;rounded=0;entryX=0.5;entryY=0;entryDx=0;entryDy=0;" edge="1" parent="1" target="qI93fAF7Guz_F5CADLSB-32">
          <mxGeometry width="50" height="50" relative="1" as="geometry">
            <mxPoint x="660" y="520" as="sourcePoint" />
            <mxPoint x="710" y="470" as="targetPoint" />
          </mxGeometry>
        </mxCell>
        <mxCell id="qI93fAF7Guz_F5CADLSB-34" value="" style="endArrow=classic;html=1;rounded=0;exitX=0.5;exitY=1;exitDx=0;exitDy=0;entryX=0.5;entryY=0;entryDx=0;entryDy=0;" edge="1" parent="1" source="qI93fAF7Guz_F5CADLSB-22" target="qI93fAF7Guz_F5CADLSB-35">
          <mxGeometry width="50" height="50" relative="1" as="geometry">
            <mxPoint x="420" y="520" as="sourcePoint" />
            <mxPoint x="424" y="560" as="targetPoint" />
          </mxGeometry>
        </mxCell>
        <mxCell id="qI93fAF7Guz_F5CADLSB-36" value="Нет" style="edgeLabel;html=1;align=center;verticalAlign=middle;resizable=0;points=[];" vertex="1" connectable="0" parent="qI93fAF7Guz_F5CADLSB-34">
          <mxGeometry x="-0.2657" y="2" relative="1" as="geometry">
            <mxPoint y="1" as="offset" />
          </mxGeometry>
        </mxCell>
        <mxCell id="qI93fAF7Guz_F5CADLSB-38" value="" style="edgeStyle=orthogonalEdgeStyle;rounded=0;orthogonalLoop=1;jettySize=auto;html=1;" edge="1" parent="1" source="qI93fAF7Guz_F5CADLSB-35" target="qI93fAF7Guz_F5CADLSB-37">
          <mxGeometry relative="1" as="geometry" />
        </mxCell>
        <mxCell id="qI93fAF7Guz_F5CADLSB-35" value="Выявление причины отказа" style="rounded=0;whiteSpace=wrap;html=1;fillColor=#d5e8d4;strokeColor=#82b366;" vertex="1" parent="1">
          <mxGeometry x="364" y="570" width="120" height="60" as="geometry" />
        </mxCell>
        <mxCell id="qI93fAF7Guz_F5CADLSB-42" value="" style="edgeStyle=orthogonalEdgeStyle;rounded=0;orthogonalLoop=1;jettySize=auto;html=1;" edge="1" parent="1" source="qI93fAF7Guz_F5CADLSB-37" target="qI93fAF7Guz_F5CADLSB-39">
          <mxGeometry relative="1" as="geometry" />
        </mxCell>
        <mxCell id="qI93fAF7Guz_F5CADLSB-37" value="Подпись жильца" style="rounded=0;whiteSpace=wrap;html=1;fillColor=#d5e8d4;strokeColor=#82b366;" vertex="1" parent="1">
          <mxGeometry x="364" y="670" width="120" height="60" as="geometry" />
        </mxCell>
        <mxCell id="qI93fAF7Guz_F5CADLSB-39" value="Факт сдачи акта выполненных работ" style="shape=hexagon;perimeter=hexagonPerimeter2;whiteSpace=wrap;html=1;fixedSize=1;fillColor=#ffe6cc;strokeColor=#d79b00;" vertex="1" parent="1">
          <mxGeometry x="364" y="760" width="120" height="80" as="geometry" />
        </mxCell>
        <mxCell id="qI93fAF7Guz_F5CADLSB-40" value="Закрытие заявки" style="shape=hexagon;perimeter=hexagonPerimeter2;whiteSpace=wrap;html=1;fixedSize=1;fillColor=#ffe6cc;strokeColor=#d79b00;" vertex="1" parent="1">
          <mxGeometry x="364" y="890" width="120" height="80" as="geometry" />
        </mxCell>
        <mxCell id="qI93fAF7Guz_F5CADLSB-41" value="" style="endArrow=classic;html=1;rounded=0;entryX=0.5;entryY=0;entryDx=0;entryDy=0;" edge="1" parent="1" target="qI93fAF7Guz_F5CADLSB-40">
          <mxGeometry width="50" height="50" relative="1" as="geometry">
            <mxPoint x="424" y="840" as="sourcePoint" />
            <mxPoint x="474" y="790" as="targetPoint" />
          </mxGeometry>
        </mxCell>
        <mxCell id="qI93fAF7Guz_F5CADLSB-46" value="Диспетчер АДС" style="rounded=0;whiteSpace=wrap;html=1;fillColor=#fff2cc;strokeColor=#d6b656;" vertex="1" parent="1">
          <mxGeometry x="210" y="570" width="120" height="60" as="geometry" />
        </mxCell>
        <mxCell id="qI93fAF7Guz_F5CADLSB-47" value="" style="endArrow=classic;html=1;rounded=0;entryX=0;entryY=0.5;entryDx=0;entryDy=0;" edge="1" parent="1" target="qI93fAF7Guz_F5CADLSB-35">
          <mxGeometry width="50" height="50" relative="1" as="geometry">
            <mxPoint x="330" y="600" as="sourcePoint" />
            <mxPoint x="380" y="550" as="targetPoint" />
          </mxGeometry>
        </mxCell>
        <mxCell id="qI93fAF7Guz_F5CADLSB-49" value="" style="edgeStyle=orthogonalEdgeStyle;rounded=0;orthogonalLoop=1;jettySize=auto;html=1;" edge="1" parent="1" source="qI93fAF7Guz_F5CADLSB-48" target="qI93fAF7Guz_F5CADLSB-37">
          <mxGeometry relative="1" as="geometry" />
        </mxCell>
        <mxCell id="qI93fAF7Guz_F5CADLSB-48" value="Жилец" style="rounded=0;whiteSpace=wrap;html=1;fillColor=#fff2cc;strokeColor=#d6b656;" vertex="1" parent="1">
          <mxGeometry x="210" y="670" width="120" height="60" as="geometry" />
        </mxCell>
      </root>
    </mxGraphModel>
  </diagram>
</mxfile>
